M48
;Layer_Color=9474304
;FILE_FORMAT=2:5
INCH
;TYPE=PLATED
T1F00S00C0.01181
T2F00S00C0.02500
T3F00S00C0.03150
%
T01
X0521419Y0306797
X0528310Y0305318
X0546574Y0307069
X0546975Y0303600
X0551604Y0311619
X0564300Y0310400
X0561476Y0307205
X0571400Y0308600
X0573016Y0305602
X0573862Y0302273
X0582969Y0307866
X0586778Y0304343
X0587125Y0311599
X0582960Y0314069
X0582085Y0318430
X0583019Y0323814
X0586032Y0326500
X0587190Y0339110
X0582769Y0345625
X0583002Y0350627
X0582885Y0357549
X0579894Y0361889
X0579454Y0369473
X0586724Y0369822
X0568402Y0369182
X0568269Y0357468
X0563268Y0357470
X0557989Y0357513
X0557060Y0352488
X0550545Y0352372
X0547642Y0350376
X0543375Y0344275
X0531509Y0344613
X0521782Y0343249
X0521510Y0335795
X0527236Y0335704
X0533937Y0330870
X0534549Y0326456
X0537100Y0324100
X0539622Y0330807
X0537973Y0337437
X0538508Y0353339
X0529418Y0354885
X0521691Y0351794
X0522691Y0360521
X0542235Y0361248
X0539690Y0369611
X0552174Y0364412
X0552232Y0359992
X0569100Y0350900
X0576933Y0335084
X0563817Y0330685
X0560400Y0327100
X0564032Y0323472
X0556819Y0323365
X0556676Y0330756
X0550500Y0317253
X0542969Y0317678
X0528948Y0320603
X0528696Y0314876
X0521345Y0315668
X0522055Y0324250
T02
X0552247Y0372422
X0562321
X0572195
T03
X0522681Y0298487
X0530554
X0538427
X0546301
X0554174
X0562047
X0569921
X0577794
X0585668
M30
