G04 Layer_Color=2752767*
%FSAX25Y25*%
%MOIN*%
G70*
G01*
G75*
%ADD44C,0.00200*%
%ADD45C,0.00267*%
D44*
X0551447Y0371622D02*
Y0373222D01*
X0553047D01*
Y0371622D01*
X0551447D01*
X0561521D02*
Y0373222D01*
X0563121D01*
Y0371622D01*
X0561521D01*
X0571395D02*
Y0373222D01*
X0572995D01*
Y0371622D01*
X0571395D01*
X0539622Y0330007D02*
X0538822Y0331607D01*
X0540422D01*
X0539622Y0330007D01*
X0576933Y0334284D02*
X0576133Y0335884D01*
X0577734D01*
X0576933Y0334284D01*
X0583019Y0323014D02*
X0582219Y0324614D01*
X0583819D01*
X0583019Y0323014D01*
X0582085Y0317630D02*
X0581285Y0319230D01*
X0582885D01*
X0582085Y0317630D01*
X0537973Y0336637D02*
X0537173Y0338237D01*
X0538773D01*
X0537973Y0336637D01*
X0537100Y0323300D02*
X0536300Y0324900D01*
X0537900D01*
X0537100Y0323300D01*
X0533937Y0330070D02*
X0533137Y0331670D01*
X0534737D01*
X0533937Y0330070D01*
X0560400Y0326300D02*
X0559600Y0327900D01*
X0561200D01*
X0560400Y0326300D01*
X0563817Y0329885D02*
X0563017Y0331485D01*
X0564617D01*
X0563817Y0329885D01*
X0564032Y0322672D02*
X0563232Y0324272D01*
X0564831D01*
X0564032Y0322672D01*
X0556819Y0322565D02*
X0556019Y0324165D01*
X0557619D01*
X0556819Y0322565D01*
X0556676Y0329956D02*
X0555876Y0331556D01*
X0557476D01*
X0556676Y0329956D01*
X0586032Y0325700D02*
X0585232Y0327300D01*
X0586832D01*
X0586032Y0325700D01*
X0546574Y0306269D02*
X0545774Y0307869D01*
X0547374D01*
X0546574Y0306269D01*
X0561476Y0306405D02*
X0560676Y0308005D01*
X0562276D01*
X0561476Y0306405D01*
X0542969Y0316878D02*
X0542169Y0318478D01*
X0543769D01*
X0542969Y0316878D01*
X0550500Y0316453D02*
X0549700Y0318053D01*
X0551300D01*
X0550500Y0316453D01*
X0551604Y0310819D02*
X0550804Y0312419D01*
X0552404D01*
X0551604Y0310819D01*
X0547642Y0349576D02*
X0546841Y0351176D01*
X0548442D01*
X0547642Y0349576D01*
X0579894Y0361089D02*
X0579094Y0362689D01*
X0580694D01*
X0579894Y0361089D01*
X0573862Y0301473D02*
X0573062Y0303073D01*
X0574662D01*
X0573862Y0301473D01*
X0571400Y0307800D02*
X0570600Y0309400D01*
X0572200D01*
X0571400Y0307800D01*
X0573016Y0304802D02*
X0572216Y0306402D01*
X0573816D01*
X0573016Y0304802D01*
X0546975Y0302800D02*
X0546175Y0304400D01*
X0547775D01*
X0546975Y0302800D01*
X0528310Y0304518D02*
X0527510Y0306118D01*
X0529110D01*
X0528310Y0304518D01*
X0543375Y0343475D02*
X0542575Y0345075D01*
X0544175D01*
X0543375Y0343475D01*
X0568269Y0356668D02*
X0567469Y0358268D01*
X0569069D01*
X0568269Y0356668D01*
X0563268Y0356670D02*
X0562468Y0358270D01*
X0564068D01*
X0563268Y0356670D01*
X0557989Y0356713D02*
X0557189Y0358313D01*
X0558789D01*
X0557989Y0356713D01*
X0568402Y0368382D02*
X0567602Y0369982D01*
X0569202D01*
X0568402Y0368382D01*
X0552174Y0363613D02*
X0551374Y0365212D01*
X0552974D01*
X0552174Y0363613D01*
X0552232Y0359192D02*
X0551432Y0360792D01*
X0553032D01*
X0552232Y0359192D01*
X0557060Y0351688D02*
X0556260Y0353288D01*
X0557860D01*
X0557060Y0351688D01*
X0550545Y0351572D02*
X0549745Y0353172D01*
X0551345D01*
X0550545Y0351572D01*
X0582885Y0356749D02*
X0582085Y0358349D01*
X0583685D01*
X0582885Y0356749D01*
X0583002Y0349827D02*
X0582202Y0351427D01*
X0583802D01*
X0583002Y0349827D01*
X0582769Y0344825D02*
X0581969Y0346425D01*
X0583569D01*
X0582769Y0344825D01*
X0586724Y0369022D02*
X0585924Y0370622D01*
X0587524D01*
X0586724Y0369022D01*
X0579454Y0368673D02*
X0578654Y0370273D01*
X0580254D01*
X0579454Y0368673D01*
X0587190Y0338310D02*
X0586390Y0339910D01*
X0587990D01*
X0587190Y0338310D01*
X0539690Y0368811D02*
X0538890Y0370411D01*
X0540490D01*
X0539690Y0368811D01*
X0522691Y0359721D02*
X0521891Y0361321D01*
X0523491D01*
X0522691Y0359721D01*
X0521691Y0350994D02*
X0520891Y0352594D01*
X0522491D01*
X0521691Y0350994D01*
X0521782Y0342449D02*
X0520982Y0344049D01*
X0522582D01*
X0521782Y0342449D01*
X0521510Y0334995D02*
X0520710Y0336595D01*
X0522309D01*
X0521510Y0334995D01*
X0522055Y0323450D02*
X0521255Y0325050D01*
X0522855D01*
X0522055Y0323450D01*
X0521419Y0305997D02*
X0520619Y0307597D01*
X0522219D01*
X0521419Y0305997D01*
X0527236Y0334904D02*
X0526436Y0336504D01*
X0528036D01*
X0527236Y0334904D01*
X0531509Y0343813D02*
X0530709Y0345413D01*
X0532309D01*
X0531509Y0343813D01*
X0529418Y0354085D02*
X0528618Y0355685D01*
X0530218D01*
X0529418Y0354085D01*
X0542235Y0360448D02*
X0541435Y0362048D01*
X0543035D01*
X0542235Y0360448D01*
X0538508Y0352539D02*
X0537708Y0354139D01*
X0539308D01*
X0538508Y0352539D01*
X0582960Y0313269D02*
X0582160Y0314869D01*
X0583760D01*
X0582960Y0313269D01*
X0586778Y0303543D02*
X0585978Y0305143D01*
X0587578D01*
X0586778Y0303543D01*
X0521345Y0314868D02*
X0520545Y0316468D01*
X0522145D01*
X0521345Y0314868D01*
X0528696Y0314076D02*
X0527896Y0315676D01*
X0529496D01*
X0528696Y0314076D01*
X0528948Y0319803D02*
X0528149Y0321403D01*
X0529748D01*
X0528948Y0319803D01*
X0534549Y0325656D02*
X0533749Y0327256D01*
X0535349D01*
X0534549Y0325656D01*
X0564300Y0309600D02*
X0563500Y0311200D01*
X0565100D01*
X0564300Y0309600D01*
X0582969Y0307066D02*
X0582169Y0308666D01*
X0583769D01*
X0582969Y0307066D01*
X0587125Y0310800D02*
X0586325Y0312400D01*
X0587925D01*
X0587125Y0310800D01*
X0569100Y0350100D02*
X0568300Y0351700D01*
X0569900D01*
X0569100Y0350100D01*
D45*
X0586468Y0298487D02*
G03*
X0586468Y0298487I-0000800J0000000D01*
G01*
X0523481D02*
G03*
X0523481Y0298487I-0000800J0000000D01*
G01*
X0531354D02*
G03*
X0531354Y0298487I-0000800J0000000D01*
G01*
X0539227D02*
G03*
X0539227Y0298487I-0000800J0000000D01*
G01*
X0547101D02*
G03*
X0547101Y0298487I-0000800J0000000D01*
G01*
X0554974D02*
G03*
X0554974Y0298487I-0000800J0000000D01*
G01*
X0562847D02*
G03*
X0562847Y0298487I-0000800J0000000D01*
G01*
X0570721D02*
G03*
X0570721Y0298487I-0000800J0000000D01*
G01*
X0578594D02*
G03*
X0578594Y0298487I-0000800J0000000D01*
G01*
M02*
