G04 Layer_Color=128*
%FSAX25Y25*%
%MOIN*%
G70*
G01*
G75*
%ADD44C,0.00200*%
D44*
X0550997Y0372422D02*
X0553497D01*
X0552247Y0371172D02*
Y0373672D01*
X0561071Y0372422D02*
X0563571D01*
X0562321Y0371172D02*
Y0373672D01*
X0570945Y0372422D02*
X0573445D01*
X0572195Y0371172D02*
Y0373672D01*
X0584093Y0298487D02*
X0587243D01*
X0585668Y0296912D02*
Y0300062D01*
X0521106Y0298487D02*
X0524256D01*
X0522681Y0296912D02*
Y0300062D01*
X0528979Y0298487D02*
X0532129D01*
X0530554Y0296912D02*
Y0300062D01*
X0536852Y0298487D02*
X0540002D01*
X0538427Y0296912D02*
Y0300062D01*
X0544726Y0298487D02*
X0547876D01*
X0546301Y0296912D02*
Y0300062D01*
X0552599Y0298487D02*
X0555749D01*
X0554174Y0296912D02*
Y0300062D01*
X0560472Y0298487D02*
X0563622D01*
X0562047Y0296912D02*
Y0300062D01*
X0568346Y0298487D02*
X0571496D01*
X0569921Y0296912D02*
Y0300062D01*
X0576219Y0298487D02*
X0579369D01*
X0577794Y0296912D02*
Y0300062D01*
X0539031Y0330807D02*
X0540212D01*
X0539622Y0330216D02*
Y0331397D01*
X0576343Y0335084D02*
X0577524D01*
X0576933Y0334494D02*
Y0335675D01*
X0582428Y0323814D02*
X0583609D01*
X0583019Y0323223D02*
Y0324404D01*
X0581494Y0318430D02*
X0582675D01*
X0582085Y0317839D02*
Y0319020D01*
X0537383Y0337437D02*
X0538564D01*
X0537973Y0336846D02*
Y0338027D01*
X0536510Y0324100D02*
X0537690D01*
X0537100Y0323510D02*
Y0324691D01*
X0533347Y0330870D02*
X0534528D01*
X0533937Y0330280D02*
Y0331461D01*
X0559809Y0327100D02*
X0560991D01*
X0560400Y0326509D02*
Y0327691D01*
X0563227Y0330685D02*
X0564408D01*
X0563817Y0330094D02*
Y0331275D01*
X0563441Y0323472D02*
X0564622D01*
X0564032Y0322881D02*
Y0324062D01*
X0556228Y0323365D02*
X0557409D01*
X0556819Y0322774D02*
Y0323955D01*
X0556085Y0330756D02*
X0557266D01*
X0556676Y0330166D02*
Y0331347D01*
X0585441Y0326500D02*
X0586622D01*
X0586032Y0325909D02*
Y0327090D01*
X0545983Y0307069D02*
X0547164D01*
X0546574Y0306479D02*
Y0307660D01*
X0560886Y0307205D02*
X0562067D01*
X0561476Y0306615D02*
Y0307796D01*
X0542378Y0317678D02*
X0543559D01*
X0542969Y0317087D02*
Y0318268D01*
X0549909Y0317253D02*
X0551090D01*
X0550500Y0316663D02*
Y0317844D01*
X0551014Y0311619D02*
X0552195D01*
X0551604Y0311028D02*
Y0312209D01*
X0547051Y0350376D02*
X0548232D01*
X0547642Y0349786D02*
Y0350967D01*
X0579304Y0361889D02*
X0580485D01*
X0579894Y0361298D02*
Y0362479D01*
X0573271Y0302273D02*
X0574452D01*
X0573862Y0301682D02*
Y0302864D01*
X0570810Y0308600D02*
X0571990D01*
X0571400Y0308010D02*
Y0309191D01*
X0572426Y0305602D02*
X0573607D01*
X0573016Y0305011D02*
Y0306192D01*
X0546385Y0303600D02*
X0547566D01*
X0546975Y0303010D02*
Y0304190D01*
X0527719Y0305318D02*
X0528901D01*
X0528310Y0304728D02*
Y0305909D01*
X0542784Y0344275D02*
X0543965D01*
X0543375Y0343684D02*
Y0344865D01*
X0567679Y0357468D02*
X0568860D01*
X0568269Y0356878D02*
Y0358059D01*
X0562677Y0357470D02*
X0563859D01*
X0563268Y0356879D02*
Y0358060D01*
X0557398Y0357513D02*
X0558579D01*
X0557989Y0356923D02*
Y0358104D01*
X0567811Y0369182D02*
X0568993D01*
X0568402Y0368592D02*
Y0369773D01*
X0551583Y0364412D02*
X0552764D01*
X0552174Y0363822D02*
Y0365003D01*
X0551641Y0359992D02*
X0552822D01*
X0552232Y0359401D02*
Y0360582D01*
X0556469Y0352488D02*
X0557650D01*
X0557060Y0351898D02*
Y0353079D01*
X0549954Y0352372D02*
X0551135D01*
X0550545Y0351782D02*
Y0352963D01*
X0582295Y0357549D02*
X0583476D01*
X0582885Y0356958D02*
Y0358139D01*
X0582411Y0350627D02*
X0583592D01*
X0583002Y0350037D02*
Y0351218D01*
X0582179Y0345625D02*
X0583360D01*
X0582769Y0345034D02*
Y0346215D01*
X0586134Y0369822D02*
X0587315D01*
X0586724Y0369231D02*
Y0370412D01*
X0578863Y0369473D02*
X0580044D01*
X0579454Y0368882D02*
Y0370063D01*
X0586599Y0339110D02*
X0587780D01*
X0587190Y0338520D02*
Y0339701D01*
X0539100Y0369611D02*
X0540281D01*
X0539690Y0369020D02*
Y0370201D01*
X0522101Y0360521D02*
X0523282D01*
X0522691Y0359930D02*
Y0361111D01*
X0521101Y0351794D02*
X0522282D01*
X0521691Y0351203D02*
Y0352384D01*
X0521192Y0343249D02*
X0522373D01*
X0521782Y0342658D02*
Y0343840D01*
X0520919Y0335795D02*
X0522100D01*
X0521510Y0335205D02*
Y0336386D01*
X0521464Y0324250D02*
X0522646D01*
X0522055Y0323660D02*
Y0324841D01*
X0520828Y0306797D02*
X0522009D01*
X0521419Y0306206D02*
Y0307388D01*
X0526646Y0335704D02*
X0527827D01*
X0527236Y0335114D02*
Y0336295D01*
X0530918Y0344613D02*
X0532099D01*
X0531509Y0344022D02*
Y0345203D01*
X0528827Y0354885D02*
X0530009D01*
X0529418Y0354294D02*
Y0355475D01*
X0541645Y0361248D02*
X0542826D01*
X0542235Y0360657D02*
Y0361838D01*
X0537918Y0353339D02*
X0539099D01*
X0538508Y0352749D02*
Y0353930D01*
X0582369Y0314069D02*
X0583550D01*
X0582960Y0313479D02*
Y0314660D01*
X0586187Y0304343D02*
X0587368D01*
X0586778Y0303752D02*
Y0304933D01*
X0520754Y0315668D02*
X0521936D01*
X0521345Y0315077D02*
Y0316258D01*
X0528105Y0314876D02*
X0529286D01*
X0528696Y0314286D02*
Y0315467D01*
X0528358Y0320603D02*
X0529539D01*
X0528948Y0320012D02*
Y0321194D01*
X0533958Y0326456D02*
X0535139D01*
X0534549Y0325865D02*
Y0327046D01*
X0563709Y0310400D02*
X0564890D01*
X0564300Y0309809D02*
Y0310991D01*
X0582379Y0307866D02*
X0583560D01*
X0582969Y0307275D02*
Y0308456D01*
X0586534Y0311599D02*
X0587715D01*
X0587125Y0311009D02*
Y0312190D01*
X0568509Y0350900D02*
X0569691D01*
X0569100Y0350309D02*
Y0351490D01*
M02*
