G04 Layer_Color=8388736*
%FSAX25Y25*%
%MOIN*%
G70*
G01*
G75*
%ADD33R,0.11036X0.11036*%
%ADD34O,0.04147X0.01800*%
%ADD35O,0.01800X0.04147*%
%ADD36R,0.04737X0.05524*%
%ADD37R,0.09461X0.04934*%
%ADD38R,0.04737X0.04737*%
G04:AMPARAMS|DCode=39|XSize=23mil|YSize=28.08mil|CornerRadius=7.75mil|HoleSize=0mil|Usage=FLASHONLY|Rotation=0.000|XOffset=0mil|YOffset=0mil|HoleType=Round|Shape=RoundedRectangle|*
%AMROUNDEDRECTD39*
21,1,0.02300,0.01258,0,0,0.0*
21,1,0.00750,0.02808,0,0,0.0*
1,1,0.01550,0.00375,-0.00629*
1,1,0.01550,-0.00375,-0.00629*
1,1,0.01550,-0.00375,0.00629*
1,1,0.01550,0.00375,0.00629*
%
%ADD39ROUNDEDRECTD39*%
G04:AMPARAMS|DCode=40|XSize=23mil|YSize=28.08mil|CornerRadius=7.75mil|HoleSize=0mil|Usage=FLASHONLY|Rotation=90.000|XOffset=0mil|YOffset=0mil|HoleType=Round|Shape=RoundedRectangle|*
%AMROUNDEDRECTD40*
21,1,0.02300,0.01258,0,0,90.0*
21,1,0.00750,0.02808,0,0,90.0*
1,1,0.01550,0.00629,0.00375*
1,1,0.01550,0.00629,-0.00375*
1,1,0.01550,-0.00629,-0.00375*
1,1,0.01550,-0.00629,0.00375*
%
%ADD40ROUNDEDRECTD40*%
%ADD41C,0.05800*%
%ADD42C,0.07100*%
D33*
X0560400Y0327100D02*
D03*
D34*
X0550459Y0320210D02*
D03*
Y0322179D02*
D03*
Y0324147D02*
D03*
Y0326116D02*
D03*
Y0328084D02*
D03*
Y0330053D02*
D03*
Y0332021D02*
D03*
Y0333990D02*
D03*
X0570341Y0333990D02*
D03*
Y0332021D02*
D03*
Y0330053D02*
D03*
Y0328084D02*
D03*
Y0326116D02*
D03*
Y0324147D02*
D03*
Y0322179D02*
D03*
Y0320210D02*
D03*
D35*
X0553510Y0337041D02*
D03*
X0555479D02*
D03*
X0557447D02*
D03*
X0559416D02*
D03*
X0561384D02*
D03*
X0563353D02*
D03*
X0565321D02*
D03*
X0567290D02*
D03*
X0567290Y0317159D02*
D03*
X0565321D02*
D03*
X0563353D02*
D03*
X0561384D02*
D03*
X0559416D02*
D03*
X0557447D02*
D03*
X0555479D02*
D03*
X0553510D02*
D03*
D36*
X0534040Y0309312D02*
D03*
Y0315611D02*
D03*
X0539552D02*
D03*
Y0309312D02*
D03*
D37*
X0552347Y0356193D02*
D03*
Y0367807D02*
D03*
D38*
X0558253Y0362000D02*
D03*
D39*
X0577375Y0338775D02*
D03*
X0574225D02*
D03*
X0567440Y0362021D02*
D03*
X0570589D02*
D03*
X0560825Y0343600D02*
D03*
X0563975D02*
D03*
X0565785Y0353427D02*
D03*
X0562635D02*
D03*
X0576925Y0321400D02*
D03*
X0580075D02*
D03*
X0576825Y0326300D02*
D03*
X0579975D02*
D03*
X0576725Y0333000D02*
D03*
X0579875D02*
D03*
X0583075Y0342200D02*
D03*
X0579925D02*
D03*
X0577441Y0362133D02*
D03*
X0574291D02*
D03*
X0570566Y0365562D02*
D03*
X0567416D02*
D03*
X0571562Y0353398D02*
D03*
X0574712D02*
D03*
X0556220Y0306069D02*
D03*
X0553070D02*
D03*
X0543375Y0339400D02*
D03*
X0540225D02*
D03*
X0543375Y0335700D02*
D03*
X0540225D02*
D03*
X0544475Y0330900D02*
D03*
X0541325D02*
D03*
X0540310Y0325951D02*
D03*
X0537161D02*
D03*
X0540239Y0322094D02*
D03*
X0537089D02*
D03*
X0579875Y0330000D02*
D03*
X0576725D02*
D03*
X0583000Y0338818D02*
D03*
X0579850D02*
D03*
D40*
X0574300Y0350450D02*
D03*
Y0347300D02*
D03*
X0574276Y0359357D02*
D03*
Y0356208D02*
D03*
X0567347Y0346754D02*
D03*
Y0349904D02*
D03*
X0560800Y0346725D02*
D03*
Y0349875D02*
D03*
X0553756Y0312089D02*
D03*
Y0308940D02*
D03*
X0561300Y0312075D02*
D03*
Y0308925D02*
D03*
X0567825Y0309058D02*
D03*
Y0305909D02*
D03*
X0586500Y0336100D02*
D03*
Y0332950D02*
D03*
X0583100Y0336100D02*
D03*
Y0332950D02*
D03*
X0574300Y0341700D02*
D03*
Y0344850D02*
D03*
X0577800Y0347300D02*
D03*
Y0350450D02*
D03*
X0564072Y0346754D02*
D03*
Y0349904D02*
D03*
X0557500Y0346725D02*
D03*
Y0349875D02*
D03*
X0553800Y0346725D02*
D03*
Y0349875D02*
D03*
X0550300Y0346725D02*
D03*
Y0349875D02*
D03*
X0547100Y0342575D02*
D03*
Y0339425D02*
D03*
X0543740Y0308778D02*
D03*
Y0311927D02*
D03*
X0533573Y0323350D02*
D03*
Y0320200D02*
D03*
X0546815Y0314047D02*
D03*
Y0310897D02*
D03*
D41*
X0552247Y0372422D02*
D03*
X0562321D02*
D03*
X0572195D02*
D03*
D42*
X0585668Y0298487D02*
D03*
X0522681D02*
D03*
X0530554D02*
D03*
X0538427D02*
D03*
X0546301D02*
D03*
X0554174D02*
D03*
X0562047D02*
D03*
X0569921D02*
D03*
X0577794D02*
D03*
M02*
