G04 Layer_Physical_Order=1*
G04 Layer_Color=255*
%FSAX25Y25*%
%MOIN*%
G70*
G01*
G75*
%ADD10R,0.10236X0.10236*%
%ADD11O,0.03347X0.01000*%
%ADD12O,0.01000X0.03347*%
%ADD13R,0.03937X0.04724*%
%ADD14R,0.08661X0.04134*%
%ADD15R,0.03937X0.03937*%
G04:AMPARAMS|DCode=16|XSize=15mil|YSize=20.08mil|CornerRadius=3.75mil|HoleSize=0mil|Usage=FLASHONLY|Rotation=0.000|XOffset=0mil|YOffset=0mil|HoleType=Round|Shape=RoundedRectangle|*
%AMROUNDEDRECTD16*
21,1,0.01500,0.01258,0,0,0.0*
21,1,0.00750,0.02008,0,0,0.0*
1,1,0.00750,0.00375,-0.00629*
1,1,0.00750,-0.00375,-0.00629*
1,1,0.00750,-0.00375,0.00629*
1,1,0.00750,0.00375,0.00629*
%
%ADD16ROUNDEDRECTD16*%
G04:AMPARAMS|DCode=17|XSize=15mil|YSize=20.08mil|CornerRadius=3.75mil|HoleSize=0mil|Usage=FLASHONLY|Rotation=90.000|XOffset=0mil|YOffset=0mil|HoleType=Round|Shape=RoundedRectangle|*
%AMROUNDEDRECTD17*
21,1,0.01500,0.01258,0,0,90.0*
21,1,0.00750,0.02008,0,0,90.0*
1,1,0.00750,0.00629,0.00375*
1,1,0.00750,0.00629,-0.00375*
1,1,0.00750,-0.00629,-0.00375*
1,1,0.00750,-0.00629,0.00375*
%
%ADD17ROUNDEDRECTD17*%
%ADD18C,0.01000*%
%ADD19C,0.00800*%
%ADD20C,0.01500*%
%ADD21C,0.02000*%
%ADD22C,0.02600*%
%ADD23R,0.05365X0.02600*%
%ADD24R,0.09922X0.02600*%
%ADD25C,0.05000*%
%ADD26C,0.05500*%
%ADD27C,0.02362*%
G36*
X0588580Y0337318D02*
X0588080Y0337166D01*
X0587976Y0337322D01*
X0587587Y0337582D01*
X0587129Y0337673D01*
X0585871D01*
X0585413Y0337582D01*
X0585261Y0337481D01*
X0584732Y0337588D01*
X0584520Y0337926D01*
X0584573Y0338189D01*
Y0339447D01*
X0584482Y0339905D01*
X0584400Y0340027D01*
Y0340879D01*
X0584557Y0341113D01*
X0584648Y0341571D01*
Y0342829D01*
X0584557Y0343287D01*
X0584297Y0343676D01*
X0583908Y0343936D01*
X0583450Y0344027D01*
X0582700D01*
X0582241Y0343936D01*
X0582031Y0343795D01*
X0581531Y0344027D01*
Y0360054D01*
X0579020D01*
X0578882Y0360352D01*
X0578835Y0360554D01*
X0579111Y0360968D01*
X0579218Y0361504D01*
Y0361633D01*
X0577441D01*
Y0362133D01*
X0576941D01*
Y0364266D01*
X0576753Y0364421D01*
Y0368055D01*
X0567281D01*
Y0371380D01*
X0568838D01*
X0569138Y0370657D01*
X0569699Y0369926D01*
X0570430Y0369365D01*
X0571281Y0369012D01*
X0572195Y0368892D01*
X0573109Y0369012D01*
X0573960Y0369365D01*
X0574691Y0369926D01*
X0575252Y0370657D01*
X0575552Y0371380D01*
X0588580D01*
Y0337318D01*
D02*
G37*
G36*
X0548390Y0371374D02*
X0548090Y0370874D01*
X0547016D01*
Y0368307D01*
X0552347D01*
Y0367807D01*
X0552847D01*
Y0364740D01*
X0553972D01*
Y0359260D01*
X0552847D01*
Y0356693D01*
X0557678D01*
Y0358498D01*
X0569363D01*
Y0356387D01*
X0558417D01*
Y0351888D01*
X0558129Y0351652D01*
X0558000D01*
Y0349875D01*
X0557000D01*
Y0351652D01*
X0556871D01*
X0556335Y0351545D01*
X0555880Y0351241D01*
X0555420D01*
X0554965Y0351545D01*
X0554429Y0351652D01*
X0554300D01*
Y0349875D01*
X0553300D01*
Y0351652D01*
X0553171D01*
X0552635Y0351545D01*
X0552180Y0351241D01*
X0551920D01*
X0551465Y0351545D01*
X0550929Y0351652D01*
X0550800D01*
Y0349875D01*
X0550300D01*
Y0349375D01*
X0548294D01*
X0548376Y0348963D01*
X0548652Y0348551D01*
X0548603Y0348345D01*
X0548465Y0348051D01*
X0545825D01*
X0545318Y0347950D01*
X0544888Y0347662D01*
X0543496Y0346271D01*
X0543375Y0346295D01*
X0542602Y0346141D01*
X0541947Y0345703D01*
X0541509Y0345048D01*
X0541355Y0344275D01*
X0541509Y0343502D01*
X0541947Y0342846D01*
X0542049Y0342778D01*
Y0341235D01*
X0541755Y0341097D01*
X0541549Y0341048D01*
X0541137Y0341324D01*
X0540725Y0341406D01*
Y0339400D01*
X0540225D01*
Y0338900D01*
X0538448D01*
Y0338771D01*
X0538555Y0338235D01*
X0538859Y0337780D01*
Y0337320D01*
X0538555Y0336865D01*
X0538448Y0336329D01*
Y0336200D01*
X0540225D01*
Y0335200D01*
X0538448D01*
Y0335071D01*
X0538460Y0335012D01*
X0538143Y0334626D01*
X0536820D01*
X0536313Y0334525D01*
X0535883Y0334237D01*
X0534437Y0332791D01*
X0533937Y0332890D01*
X0533164Y0332736D01*
X0532509Y0332298D01*
X0532071Y0331643D01*
X0531917Y0330870D01*
X0532071Y0330097D01*
X0532509Y0329442D01*
X0533164Y0329004D01*
X0533937Y0328850D01*
X0534380Y0328938D01*
X0535775Y0327543D01*
X0535490Y0327116D01*
X0535384Y0326580D01*
Y0326451D01*
X0537161D01*
Y0325451D01*
X0535384D01*
Y0325322D01*
X0535414Y0325170D01*
X0534964Y0324869D01*
X0534739Y0325020D01*
X0534202Y0325127D01*
X0534073D01*
Y0323350D01*
X0533573D01*
Y0322850D01*
X0531567D01*
X0531649Y0322438D01*
X0531953Y0321984D01*
X0531995Y0321955D01*
X0532097Y0321422D01*
X0531837Y0321034D01*
X0531746Y0320575D01*
Y0319825D01*
X0531837Y0319367D01*
X0531900Y0319274D01*
X0531632Y0318774D01*
X0531272D01*
Y0312674D01*
X0531072D01*
Y0309812D01*
X0534040D01*
Y0309312D01*
X0534541D01*
Y0305950D01*
X0537009D01*
Y0306150D01*
X0542321D01*
Y0306721D01*
X0542821Y0307058D01*
X0543111Y0307001D01*
X0543240D01*
Y0308778D01*
X0544240D01*
Y0307001D01*
X0544369D01*
X0544905Y0307107D01*
X0545360Y0307411D01*
X0545664Y0307866D01*
X0545771Y0308403D01*
Y0308693D01*
X0546186Y0309120D01*
X0546315D01*
Y0310897D01*
X0546815D01*
Y0311398D01*
X0548821D01*
X0548739Y0311809D01*
X0548435Y0312264D01*
X0548393Y0312292D01*
X0548291Y0312825D01*
X0548551Y0313214D01*
X0548642Y0313672D01*
Y0314422D01*
X0548551Y0314880D01*
X0548371Y0315149D01*
X0548419Y0315198D01*
X0548685Y0315595D01*
X0548778Y0316063D01*
Y0318302D01*
X0549360Y0318885D01*
X0550508D01*
Y0317297D01*
X0552185D01*
Y0313917D01*
X0551798Y0313600D01*
X0551604Y0313639D01*
X0550831Y0313485D01*
X0550176Y0313047D01*
X0549738Y0312392D01*
X0549584Y0311619D01*
X0549738Y0310846D01*
X0550176Y0310190D01*
X0550831Y0309753D01*
X0551285Y0309662D01*
X0551567Y0309440D01*
X0553756D01*
Y0308440D01*
X0551750D01*
X0551832Y0308028D01*
X0551949Y0307853D01*
X0551704Y0307689D01*
X0551400Y0307234D01*
X0551293Y0306698D01*
Y0306569D01*
X0553070D01*
Y0305569D01*
X0551293D01*
Y0305440D01*
X0551316Y0305324D01*
X0550906Y0304823D01*
X0548540D01*
X0548404Y0305028D01*
X0547748Y0305466D01*
X0546975Y0305620D01*
X0546202Y0305466D01*
X0545547Y0305028D01*
X0545109Y0304373D01*
X0544955Y0303600D01*
X0545109Y0302827D01*
X0545362Y0302448D01*
X0545365Y0302344D01*
X0545177Y0301864D01*
X0544510Y0301588D01*
X0543769Y0301019D01*
X0543200Y0300277D01*
X0542842Y0299414D01*
X0542726Y0298533D01*
X0542204D01*
X0542081Y0299466D01*
X0541703Y0300378D01*
X0541102Y0301162D01*
X0540319Y0301763D01*
X0539406Y0302140D01*
X0538927Y0302203D01*
Y0298487D01*
X0537927D01*
Y0302203D01*
X0537449Y0302140D01*
X0536536Y0301763D01*
X0535753Y0301162D01*
X0535152Y0300378D01*
X0534774Y0299466D01*
X0534651Y0298533D01*
X0534129D01*
X0534013Y0299414D01*
X0533655Y0300277D01*
X0533086Y0301019D01*
X0532344Y0301588D01*
X0531481Y0301946D01*
X0530554Y0302068D01*
X0529627Y0301946D01*
X0528764Y0301588D01*
X0528022Y0301019D01*
X0527453Y0300277D01*
X0527096Y0299414D01*
X0526979Y0298533D01*
X0526255D01*
X0526139Y0299414D01*
X0525782Y0300277D01*
X0525213Y0301019D01*
X0524471Y0301588D01*
X0524397Y0301619D01*
X0524279Y0302208D01*
X0526165Y0304095D01*
X0526745D01*
X0526882Y0303890D01*
X0527537Y0303452D01*
X0528310Y0303298D01*
X0529083Y0303452D01*
X0529738Y0303890D01*
X0530176Y0304545D01*
X0530330Y0305318D01*
X0530176Y0306091D01*
X0529738Y0306746D01*
X0529083Y0307184D01*
X0528310Y0307338D01*
X0527537Y0307184D01*
X0526882Y0306746D01*
X0526745Y0306541D01*
X0525659D01*
X0525190Y0306448D01*
X0524793Y0306183D01*
X0521816Y0303205D01*
X0521550Y0302808D01*
X0521457Y0302340D01*
Y0301823D01*
X0520890Y0301588D01*
X0520386Y0301201D01*
X0519886Y0301447D01*
Y0371380D01*
X0548386D01*
X0548390Y0371374D01*
D02*
G37*
G36*
X0587000Y0331173D02*
X0587129D01*
X0587665Y0331280D01*
X0588080Y0331557D01*
X0588279Y0331511D01*
X0588580Y0331372D01*
Y0301284D01*
X0588080Y0301111D01*
X0587458Y0301588D01*
X0586595Y0301946D01*
X0585781Y0302053D01*
X0580806Y0307029D01*
Y0314252D01*
X0580713Y0314721D01*
X0580447Y0315118D01*
X0578752Y0316813D01*
X0578944Y0317274D01*
X0580474D01*
X0580656Y0317001D01*
X0581312Y0316564D01*
X0582085Y0316410D01*
X0582858Y0316564D01*
X0583513Y0317001D01*
X0583951Y0317657D01*
X0584104Y0318430D01*
X0583951Y0319203D01*
X0583513Y0319858D01*
X0582858Y0320296D01*
X0582290Y0320409D01*
X0581974Y0320670D01*
X0581858Y0320900D01*
X0580075D01*
Y0321900D01*
X0582303D01*
X0582352Y0321926D01*
X0583019Y0321794D01*
X0583792Y0321948D01*
X0584447Y0322385D01*
X0584885Y0323041D01*
X0585039Y0323814D01*
X0584885Y0324587D01*
X0584447Y0325242D01*
X0583792Y0325680D01*
X0583019Y0325834D01*
X0582246Y0325680D01*
X0582027Y0325800D01*
X0579975D01*
Y0326800D01*
X0581752D01*
Y0326929D01*
X0581645Y0327465D01*
X0581341Y0327920D01*
X0581337Y0328524D01*
X0581545Y0328835D01*
X0581652Y0329371D01*
Y0329500D01*
X0579875D01*
Y0330500D01*
X0581652D01*
Y0330629D01*
X0581597Y0330904D01*
X0581733Y0331056D01*
X0582036Y0331260D01*
X0582471Y0331173D01*
X0582600D01*
Y0332950D01*
X0583600D01*
Y0331173D01*
X0583729D01*
X0584265Y0331280D01*
X0584415Y0331380D01*
X0584800Y0331549D01*
X0585185Y0331380D01*
X0585335Y0331280D01*
X0585871Y0331173D01*
X0586000D01*
Y0332950D01*
X0587000D01*
Y0331173D01*
D02*
G37*
%LPC*%
G36*
X0577941Y0364139D02*
Y0362633D01*
X0579218D01*
Y0362762D01*
X0579111Y0363298D01*
X0578807Y0363753D01*
X0578352Y0364057D01*
X0577941Y0364139D01*
D02*
G37*
G36*
X0551847Y0367307D02*
X0547016D01*
Y0364740D01*
X0551847D01*
Y0367307D01*
D02*
G37*
G36*
X0536156Y0369637D02*
X0520425D01*
Y0362883D01*
X0536156D01*
Y0369637D01*
D02*
G37*
G36*
X0551847Y0359260D02*
X0547016D01*
Y0356693D01*
X0551847D01*
Y0359260D01*
D02*
G37*
G36*
X0557678Y0355693D02*
X0552847D01*
Y0353126D01*
X0557678D01*
Y0355693D01*
D02*
G37*
G36*
X0551847D02*
X0547016D01*
Y0353126D01*
X0551847D01*
Y0355693D01*
D02*
G37*
G36*
X0549800Y0351652D02*
X0549671D01*
X0549135Y0351545D01*
X0548680Y0351241D01*
X0548376Y0350786D01*
X0548294Y0350375D01*
X0549800D01*
Y0351652D01*
D02*
G37*
G36*
X0539725Y0341406D02*
X0539314Y0341324D01*
X0538859Y0341020D01*
X0538555Y0340565D01*
X0538448Y0340029D01*
Y0339900D01*
X0539725D01*
Y0341406D01*
D02*
G37*
G36*
X0533073Y0325127D02*
X0532944D01*
X0532408Y0325020D01*
X0531953Y0324716D01*
X0531649Y0324261D01*
X0531567Y0323850D01*
X0533073D01*
Y0325127D01*
D02*
G37*
G36*
X0548821Y0310398D02*
X0547315D01*
Y0309120D01*
X0547444D01*
X0547980Y0309227D01*
X0548435Y0309531D01*
X0548739Y0309986D01*
X0548821Y0310398D01*
D02*
G37*
G36*
X0533540Y0308812D02*
X0531072D01*
Y0305950D01*
X0533540D01*
Y0308812D01*
D02*
G37*
%LPD*%
G36*
X0523867Y0363768D02*
X0523184D01*
X0521225Y0368814D01*
X0521955D01*
X0523260Y0365150D01*
Y0365143D01*
X0523268Y0365127D01*
X0523276Y0365104D01*
X0523291Y0365073D01*
X0523314Y0364989D01*
X0523353Y0364881D01*
X0523399Y0364751D01*
X0523445Y0364613D01*
X0523529Y0364321D01*
Y0364329D01*
X0523537Y0364336D01*
X0523545Y0364359D01*
X0523552Y0364390D01*
X0523575Y0364474D01*
X0523606Y0364582D01*
X0523644Y0364705D01*
X0523691Y0364843D01*
X0523744Y0364997D01*
X0523798Y0365150D01*
X0525165Y0368814D01*
X0525841D01*
X0523867Y0363768D01*
D02*
G37*
G36*
X0531163D02*
X0530457D01*
Y0364474D01*
X0531163D01*
Y0363768D01*
D02*
G37*
G36*
X0528529D02*
X0527907D01*
Y0367715D01*
X0527899Y0367708D01*
X0527868Y0367677D01*
X0527815Y0367639D01*
X0527745Y0367585D01*
X0527661Y0367516D01*
X0527561Y0367447D01*
X0527446Y0367362D01*
X0527315Y0367285D01*
X0527308D01*
X0527300Y0367278D01*
X0527254Y0367247D01*
X0527185Y0367209D01*
X0527100Y0367162D01*
X0527001Y0367109D01*
X0526893Y0367063D01*
X0526778Y0367009D01*
X0526670Y0366963D01*
Y0367569D01*
X0526678D01*
X0526693Y0367577D01*
X0526724Y0367593D01*
X0526755Y0367616D01*
X0526801Y0367639D01*
X0526855Y0367662D01*
X0526977Y0367731D01*
X0527116Y0367815D01*
X0527269Y0367915D01*
X0527423Y0368030D01*
X0527569Y0368153D01*
X0527577Y0368161D01*
X0527584Y0368168D01*
X0527630Y0368215D01*
X0527699Y0368284D01*
X0527784Y0368368D01*
X0527876Y0368476D01*
X0527968Y0368591D01*
X0528053Y0368714D01*
X0528122Y0368837D01*
X0528529D01*
Y0363768D01*
D02*
G37*
G36*
X0533859Y0368829D02*
X0533951Y0368814D01*
X0534059Y0368798D01*
X0534181Y0368767D01*
X0534304Y0368722D01*
X0534419Y0368668D01*
X0534435Y0368660D01*
X0534473Y0368637D01*
X0534527Y0368599D01*
X0534604Y0368552D01*
X0534681Y0368483D01*
X0534765Y0368399D01*
X0534850Y0368307D01*
X0534926Y0368199D01*
X0534934Y0368184D01*
X0534957Y0368145D01*
X0534995Y0368076D01*
X0535042Y0367992D01*
X0535088Y0367884D01*
X0535141Y0367754D01*
X0535195Y0367608D01*
X0535241Y0367447D01*
Y0367439D01*
X0535249Y0367424D01*
Y0367401D01*
X0535257Y0367362D01*
X0535272Y0367324D01*
X0535280Y0367270D01*
X0535287Y0367201D01*
X0535303Y0367132D01*
X0535310Y0367047D01*
X0535318Y0366963D01*
X0535333Y0366863D01*
X0535341Y0366755D01*
X0535349Y0366640D01*
Y0366525D01*
X0535356Y0366256D01*
Y0366248D01*
Y0366218D01*
Y0366172D01*
Y0366110D01*
X0535349Y0366034D01*
Y0365949D01*
X0535341Y0365849D01*
X0535333Y0365742D01*
X0535310Y0365511D01*
X0535280Y0365273D01*
X0535233Y0365035D01*
X0535203Y0364928D01*
X0535172Y0364820D01*
Y0364812D01*
X0535164Y0364797D01*
X0535157Y0364766D01*
X0535141Y0364728D01*
X0535118Y0364682D01*
X0535095Y0364636D01*
X0535034Y0364513D01*
X0534957Y0364375D01*
X0534865Y0364236D01*
X0534757Y0364098D01*
X0534627Y0363975D01*
X0534619D01*
X0534611Y0363960D01*
X0534588Y0363952D01*
X0534565Y0363929D01*
X0534481Y0363883D01*
X0534381Y0363829D01*
X0534243Y0363775D01*
X0534089Y0363730D01*
X0533913Y0363699D01*
X0533713Y0363683D01*
X0533644D01*
X0533590Y0363691D01*
X0533529Y0363699D01*
X0533460Y0363714D01*
X0533383Y0363730D01*
X0533298Y0363745D01*
X0533114Y0363806D01*
X0533014Y0363852D01*
X0532922Y0363898D01*
X0532822Y0363960D01*
X0532730Y0364029D01*
X0532645Y0364106D01*
X0532561Y0364198D01*
X0532553Y0364206D01*
X0532538Y0364229D01*
X0532515Y0364267D01*
X0532484Y0364321D01*
X0532446Y0364390D01*
X0532407Y0364474D01*
X0532361Y0364574D01*
X0532315Y0364697D01*
X0532269Y0364828D01*
X0532223Y0364981D01*
X0532185Y0365150D01*
X0532146Y0365335D01*
X0532115Y0365542D01*
X0532092Y0365757D01*
X0532077Y0366003D01*
X0532069Y0366256D01*
Y0366264D01*
Y0366295D01*
Y0366341D01*
Y0366402D01*
X0532077Y0366479D01*
Y0366563D01*
X0532085Y0366663D01*
X0532092Y0366771D01*
X0532115Y0367001D01*
X0532146Y0367239D01*
X0532185Y0367477D01*
X0532215Y0367585D01*
X0532246Y0367692D01*
Y0367700D01*
X0532254Y0367715D01*
X0532269Y0367746D01*
X0532284Y0367785D01*
X0532300Y0367831D01*
X0532323Y0367884D01*
X0532384Y0368007D01*
X0532461Y0368145D01*
X0532553Y0368284D01*
X0532661Y0368414D01*
X0532791Y0368537D01*
X0532799D01*
X0532807Y0368552D01*
X0532830Y0368568D01*
X0532860Y0368583D01*
X0532937Y0368629D01*
X0533045Y0368691D01*
X0533175Y0368744D01*
X0533337Y0368791D01*
X0533513Y0368821D01*
X0533713Y0368837D01*
X0533782D01*
X0533859Y0368829D01*
D02*
G37*
%LPC*%
G36*
X0533705Y0368322D02*
X0533667D01*
X0533636Y0368314D01*
X0533559Y0368307D01*
X0533460Y0368276D01*
X0533352Y0368230D01*
X0533237Y0368168D01*
X0533121Y0368076D01*
X0533068Y0368015D01*
X0533022Y0367953D01*
Y0367946D01*
X0533006Y0367930D01*
X0532991Y0367900D01*
X0532976Y0367861D01*
X0532953Y0367808D01*
X0532922Y0367746D01*
X0532891Y0367662D01*
X0532868Y0367569D01*
X0532837Y0367462D01*
X0532807Y0367339D01*
X0532784Y0367201D01*
X0532753Y0367039D01*
X0532737Y0366871D01*
X0532722Y0366686D01*
X0532707Y0366479D01*
Y0366256D01*
Y0366241D01*
Y0366202D01*
Y0366141D01*
X0532715Y0366056D01*
Y0365957D01*
X0532722Y0365842D01*
X0532730Y0365711D01*
X0532745Y0365580D01*
X0532776Y0365304D01*
X0532830Y0365027D01*
X0532860Y0364904D01*
X0532899Y0364789D01*
X0532945Y0364682D01*
X0532991Y0364597D01*
Y0364590D01*
X0533006Y0364582D01*
X0533045Y0364536D01*
X0533106Y0364467D01*
X0533191Y0364398D01*
X0533298Y0364321D01*
X0533421Y0364252D01*
X0533559Y0364206D01*
X0533636Y0364198D01*
X0533713Y0364190D01*
X0533751D01*
X0533782Y0364198D01*
X0533859Y0364213D01*
X0533959Y0364244D01*
X0534074Y0364290D01*
X0534189Y0364359D01*
X0534250Y0364405D01*
X0534312Y0364467D01*
X0534373Y0364528D01*
X0534427Y0364597D01*
Y0364605D01*
X0534443Y0364620D01*
X0534458Y0364643D01*
X0534473Y0364682D01*
X0534496Y0364728D01*
X0534519Y0364797D01*
X0534542Y0364874D01*
X0534573Y0364958D01*
X0534604Y0365066D01*
X0534627Y0365181D01*
X0534650Y0365319D01*
X0534673Y0365473D01*
X0534696Y0365642D01*
X0534704Y0365826D01*
X0534719Y0366034D01*
Y0366256D01*
Y0366271D01*
Y0366310D01*
Y0366371D01*
X0534711Y0366456D01*
Y0366556D01*
X0534704Y0366671D01*
X0534696Y0366794D01*
X0534681Y0366932D01*
X0534650Y0367209D01*
X0534596Y0367477D01*
X0534565Y0367608D01*
X0534527Y0367723D01*
X0534481Y0367823D01*
X0534427Y0367907D01*
Y0367915D01*
X0534412Y0367923D01*
X0534373Y0367969D01*
X0534312Y0368038D01*
X0534228Y0368115D01*
X0534120Y0368192D01*
X0533997Y0368261D01*
X0533859Y0368307D01*
X0533782Y0368314D01*
X0533705Y0368322D01*
D02*
G37*
%LPD*%
D10*
X0560400Y0327100D02*
D03*
D11*
X0550459Y0320210D02*
D03*
Y0322179D02*
D03*
Y0324147D02*
D03*
Y0326116D02*
D03*
Y0328084D02*
D03*
Y0330053D02*
D03*
Y0332021D02*
D03*
Y0333990D02*
D03*
X0570341Y0333990D02*
D03*
Y0332021D02*
D03*
Y0330053D02*
D03*
Y0328084D02*
D03*
Y0326116D02*
D03*
Y0324147D02*
D03*
Y0322179D02*
D03*
Y0320210D02*
D03*
D12*
X0553510Y0337041D02*
D03*
X0555479D02*
D03*
X0557447D02*
D03*
X0559416D02*
D03*
X0561384D02*
D03*
X0563353D02*
D03*
X0565321D02*
D03*
X0567290D02*
D03*
X0567290Y0317159D02*
D03*
X0565321D02*
D03*
X0563353D02*
D03*
X0561384D02*
D03*
X0559416D02*
D03*
X0557447D02*
D03*
X0555479D02*
D03*
X0553510D02*
D03*
D13*
X0534040Y0309312D02*
D03*
Y0315611D02*
D03*
X0539552D02*
D03*
Y0309312D02*
D03*
D14*
X0552347Y0356193D02*
D03*
Y0367807D02*
D03*
D15*
X0558253Y0362000D02*
D03*
D16*
X0577375Y0338775D02*
D03*
X0574225D02*
D03*
X0567440Y0362021D02*
D03*
X0570589D02*
D03*
X0560825Y0343600D02*
D03*
X0563975D02*
D03*
X0565785Y0353427D02*
D03*
X0562635D02*
D03*
X0576925Y0321400D02*
D03*
X0580075D02*
D03*
X0576825Y0326300D02*
D03*
X0579975D02*
D03*
X0576725Y0333000D02*
D03*
X0579875D02*
D03*
X0583075Y0342200D02*
D03*
X0579925D02*
D03*
X0577441Y0362133D02*
D03*
X0574291D02*
D03*
X0570566Y0365562D02*
D03*
X0567416D02*
D03*
X0571562Y0353398D02*
D03*
X0574712D02*
D03*
X0556220Y0306069D02*
D03*
X0553070D02*
D03*
X0543375Y0339400D02*
D03*
X0540225D02*
D03*
X0543375Y0335700D02*
D03*
X0540225D02*
D03*
X0544475Y0330900D02*
D03*
X0541325D02*
D03*
X0540310Y0325951D02*
D03*
X0537161D02*
D03*
X0540239Y0322094D02*
D03*
X0537089D02*
D03*
X0579875Y0330000D02*
D03*
X0576725D02*
D03*
X0583000Y0338818D02*
D03*
X0579850D02*
D03*
D17*
X0574300Y0350450D02*
D03*
Y0347300D02*
D03*
X0574276Y0359357D02*
D03*
Y0356208D02*
D03*
X0567347Y0346754D02*
D03*
Y0349904D02*
D03*
X0560800Y0346725D02*
D03*
Y0349875D02*
D03*
X0553756Y0312089D02*
D03*
Y0308940D02*
D03*
X0561300Y0312075D02*
D03*
Y0308925D02*
D03*
X0567825Y0309058D02*
D03*
Y0305909D02*
D03*
X0586500Y0336100D02*
D03*
Y0332950D02*
D03*
X0583100Y0336100D02*
D03*
Y0332950D02*
D03*
X0574300Y0341700D02*
D03*
Y0344850D02*
D03*
X0577800Y0347300D02*
D03*
Y0350450D02*
D03*
X0564072Y0346754D02*
D03*
Y0349904D02*
D03*
X0557500Y0346725D02*
D03*
Y0349875D02*
D03*
X0553800Y0346725D02*
D03*
Y0349875D02*
D03*
X0550300Y0346725D02*
D03*
Y0349875D02*
D03*
X0547100Y0342575D02*
D03*
Y0339425D02*
D03*
X0543740Y0308778D02*
D03*
Y0311927D02*
D03*
X0533573Y0323350D02*
D03*
Y0320200D02*
D03*
X0546815Y0314047D02*
D03*
Y0310897D02*
D03*
D18*
X0583000Y0336225D02*
X0583125Y0336100D01*
X0578400Y0323800D02*
X0583019D01*
X0574116Y0328084D02*
X0578400Y0323800D01*
X0562151Y0312075D02*
X0564324Y0309902D01*
X0550900Y0345633D02*
Y0346725D01*
X0542900Y0333300D02*
X0546147Y0330053D01*
X0534164Y0330644D02*
X0534356Y0330836D01*
X0534130Y0331063D02*
X0534356Y0330836D01*
X0553510Y0311685D02*
Y0317159D01*
X0556348Y0306069D02*
Y0313417D01*
X0560800Y0341000D02*
Y0346725D01*
X0564000D02*
X0567300D01*
X0564000Y0341100D02*
Y0346725D01*
X0571202Y0353398D02*
X0571700Y0352900D01*
X0570600Y0362021D02*
Y0365562D01*
X0574300Y0359650D02*
Y0362133D01*
X0579900Y0338818D02*
X0579912Y0340401D01*
X0579900Y0338800D02*
X0579900Y0338818D01*
X0567450Y0362021D02*
Y0365562D01*
X0562651Y0353433D02*
X0563999Y0349877D01*
X0562625Y0353500D02*
X0562651Y0353433D01*
X0562598Y0353446D02*
X0562625Y0353500D01*
X0560800Y0349875D02*
X0562598Y0353446D01*
X0574300Y0350450D02*
Y0356500D01*
X0570341Y0326116D02*
X0572680D01*
X0570341Y0330053D02*
X0576672D01*
X0576725Y0330000D01*
X0572680Y0326116D02*
X0576896Y0321900D01*
X0570341Y0328084D02*
X0574116D01*
X0570341Y0332021D02*
X0574721D01*
X0576925Y0319775D02*
Y0321400D01*
Y0319775D02*
X0578100Y0318600D01*
X0582000D01*
X0543375Y0344275D02*
X0545825Y0346725D01*
X0550300D02*
X0550900D01*
X0561384Y0337041D02*
Y0340416D01*
X0557500Y0346725D02*
X0560800D01*
X0563353Y0337041D02*
Y0340453D01*
X0564000Y0341100D01*
X0565321Y0337041D02*
Y0339521D01*
X0574300Y0347300D02*
X0577800D01*
X0579912Y0340401D02*
X0579925Y0342200D01*
X0583075Y0338825D02*
Y0342200D01*
X0543375Y0339400D02*
X0548785Y0333990D01*
X0550459D01*
X0547053Y0332021D02*
X0550459D01*
X0543375Y0335700D02*
X0547053Y0332021D01*
X0546147Y0330053D02*
X0550459D01*
X0542559Y0328084D02*
X0550459D01*
X0540475Y0326000D02*
X0542559Y0328084D01*
X0550900Y0345600D02*
Y0345633D01*
X0560800Y0341000D02*
X0561384Y0340416D01*
X0550900Y0345633D02*
X0557447Y0339086D01*
Y0337041D02*
Y0339086D01*
X0565321Y0339521D02*
X0571700Y0345900D01*
Y0352900D01*
X0574300Y0350450D02*
X0577800D01*
X0574300Y0344850D02*
Y0347300D01*
Y0338850D02*
Y0341700D01*
X0574225Y0338775D02*
X0574300Y0338850D01*
X0569024Y0338775D02*
X0574225D01*
X0567290Y0337041D02*
X0569024Y0338775D01*
X0576725Y0333000D02*
X0576900Y0333175D01*
X0574721Y0332021D02*
X0575700Y0333000D01*
X0576725D01*
X0579566Y0338818D02*
X0579850D01*
X0579544Y0338840D02*
X0579566Y0338818D01*
X0577907Y0338840D02*
X0579544D01*
X0577863Y0338884D02*
X0577907Y0338840D01*
X0583000Y0336225D02*
Y0338818D01*
X0583100Y0336100D02*
X0583125D01*
X0586500D01*
X0561384Y0312159D02*
Y0317159D01*
X0561300Y0312075D02*
X0561384Y0312159D01*
X0561300Y0312075D02*
X0562151D01*
X0543375Y0339400D02*
Y0344275D01*
X0540475Y0326000D02*
Y0326925D01*
X0576900Y0333175D02*
Y0335051D01*
X0577949Y0336100D02*
X0583100D01*
X0576900Y0335051D02*
X0576933Y0335084D01*
X0577949Y0336100D01*
X0536828Y0328364D02*
X0539036D01*
X0540475Y0326925D01*
X0536820Y0333300D02*
X0542900D01*
X0563999Y0349877D02*
X0563999Y0349877D01*
X0565785Y0353427D02*
X0565813Y0353398D01*
X0571202D01*
X0571562D01*
X0571140Y0353460D02*
X0571202Y0353398D01*
X0534356Y0330836D02*
X0536828Y0328364D01*
X0534356Y0330836D02*
X0536820Y0333300D01*
X0564300Y0309878D02*
X0564324Y0309902D01*
X0552432Y0311685D02*
X0553510D01*
X0555479Y0314286D02*
X0556348Y0313417D01*
X0555479Y0314286D02*
Y0317159D01*
X0545825Y0346725D02*
X0550300D01*
X0530184Y0309312D02*
X0534040D01*
Y0304583D02*
Y0309312D01*
X0553070Y0306069D02*
Y0308254D01*
X0553756Y0308940D01*
X0546574Y0307069D02*
X0548196D01*
X0549197Y0306069D01*
X0553070D01*
X0536233Y0356193D02*
X0552347D01*
X0564300Y0309878D02*
X0564400Y0309778D01*
X0546574Y0307069D02*
Y0310695D01*
X0543254Y0304583D02*
X0545740Y0307069D01*
X0546574D01*
X0563999Y0349877D02*
X0564000Y0349875D01*
X0563999Y0349877D02*
X0563999Y0349877D01*
D19*
X0552286Y0357189D02*
Y0367807D01*
Y0357189D02*
X0553800Y0355675D01*
X0546674Y0310056D02*
X0549254Y0312636D01*
X0585349Y0298458D02*
Y0300755D01*
X0577476Y0298458D02*
Y0313731D01*
X0569602Y0298458D02*
Y0300762D01*
X0571530Y0308527D02*
Y0311133D01*
X0541414Y0310414D02*
X0544140Y0313140D01*
X0568029Y0308820D02*
Y0310379D01*
X0546324Y0313845D02*
Y0314832D01*
X0570341Y0324147D02*
X0572244D01*
X0574814Y0321577D01*
X0544716Y0326116D02*
X0550459D01*
X0541100Y0322500D02*
X0544716Y0326116D01*
X0540375Y0322500D02*
X0541100D01*
X0547100Y0339425D02*
X0552408D01*
X0553510Y0338323D01*
Y0337041D02*
Y0338323D01*
X0547100Y0342575D02*
X0551554D01*
X0555479Y0338650D01*
Y0337041D02*
Y0338650D01*
X0553487Y0345613D02*
Y0346413D01*
Y0345613D02*
X0559416Y0339684D01*
Y0337041D02*
Y0339684D01*
X0545754Y0324147D02*
X0550459D01*
X0553800Y0349875D02*
X0557500D01*
X0537973Y0337437D02*
X0540059D01*
X0540225Y0337603D01*
X0553800Y0349875D02*
Y0355675D01*
X0580075Y0321400D02*
X0584615D01*
X0586032Y0322817D01*
Y0326500D01*
X0580174D02*
X0586032D01*
X0535562Y0324100D02*
X0537100D01*
X0534812Y0323350D02*
X0535562Y0324100D01*
X0541207Y0319600D02*
X0545754Y0324147D01*
X0540222Y0310414D02*
X0541414D01*
X0584615Y0321400D02*
X0585326Y0320689D01*
X0544140Y0313140D02*
Y0315310D01*
X0546762Y0322179D02*
X0550459D01*
X0548955Y0320210D02*
X0550459D01*
X0545630Y0321047D02*
X0546762Y0322179D01*
X0544140Y0315310D02*
X0545630Y0316800D01*
Y0321047D01*
X0549254Y0312636D02*
Y0316007D01*
X0550500Y0317253D01*
X0546324Y0314832D02*
X0547554Y0316063D01*
Y0318809D01*
X0548955Y0320210D01*
X0574814Y0319020D02*
Y0321577D01*
X0561476Y0307205D02*
X0563077Y0305605D01*
X0567613D01*
X0577441Y0362133D02*
X0577685Y0361889D01*
X0579894D01*
X0552247Y0367846D02*
Y0372422D01*
Y0367846D02*
X0552286Y0367807D01*
X0547642Y0350376D02*
X0549799D01*
X0572195Y0372422D02*
X0579894Y0364723D01*
Y0361889D02*
Y0364723D01*
X0574814Y0319020D02*
X0579582Y0314252D01*
Y0306522D02*
Y0314252D01*
Y0306522D02*
X0585349Y0300755D01*
X0573862Y0302273D02*
X0575766Y0304177D01*
X0570341Y0318144D02*
Y0320210D01*
Y0318144D02*
X0575766Y0312719D01*
Y0304177D02*
Y0312719D01*
X0571400Y0308600D02*
X0571457D01*
X0571530Y0308527D01*
X0568663Y0317159D02*
X0574024Y0311799D01*
X0567290Y0317159D02*
X0568663D01*
X0573016Y0305602D02*
X0574024Y0306610D01*
Y0311799D01*
X0556220Y0305029D02*
Y0306069D01*
X0570341Y0322179D02*
X0571950D01*
X0573214Y0320914D01*
Y0317992D02*
X0577476Y0313731D01*
X0573214Y0317992D02*
Y0320914D01*
X0558594Y0306706D02*
Y0313953D01*
X0561807Y0303493D02*
X0566872D01*
X0558594Y0306706D02*
X0561807Y0303493D01*
X0558594Y0313953D02*
X0559416Y0314775D01*
Y0317159D01*
X0566872Y0303493D02*
X0569602Y0300762D01*
X0522681Y0298487D02*
Y0302340D01*
X0525659Y0305318D02*
X0528310D01*
X0522681Y0302340D02*
X0525659Y0305318D01*
X0546975Y0303600D02*
X0554790D01*
X0556220Y0305029D01*
X0565321Y0315385D02*
Y0317159D01*
X0563353Y0315055D02*
Y0317159D01*
X0570475Y0312187D02*
X0571530Y0311133D01*
X0565321Y0315385D02*
X0568519Y0312187D01*
X0570475D01*
X0563353Y0315055D02*
X0568029Y0310379D01*
X0533573Y0323350D02*
X0534812D01*
X0534944Y0319600D02*
X0541207D01*
X0534944Y0315850D02*
Y0319600D01*
X0534173D02*
X0534944D01*
X0533573Y0320200D02*
X0534173Y0319600D01*
X0540456Y0315850D02*
X0542284Y0317678D01*
X0542969D01*
D20*
X0579875Y0326295D02*
Y0330000D01*
X0583100Y0332950D02*
X0586500D01*
X0583030Y0333020D02*
X0583100Y0332950D01*
X0580120Y0333020D02*
X0583030D01*
X0579875Y0326295D02*
X0579920Y0326249D01*
X0579875Y0330000D02*
Y0333000D01*
X0540225Y0335700D02*
Y0337603D01*
Y0339400D01*
D21*
X0526478Y0313018D02*
Y0346438D01*
X0534040Y0302874D02*
X0538427Y0298487D01*
X0526478Y0313018D02*
X0530184Y0309312D01*
X0534040Y0302874D02*
Y0304583D01*
X0526478Y0346438D02*
X0536233Y0356193D01*
X0534040Y0304583D02*
X0543254D01*
D22*
X0562321Y0362076D02*
Y0372422D01*
Y0362076D02*
X0562349Y0362047D01*
D23*
X0572359Y0362081D02*
D03*
D24*
X0563209Y0362011D02*
D03*
D25*
X0552247Y0372422D02*
D03*
X0562321D02*
D03*
X0572195D02*
D03*
D26*
X0585668Y0298487D02*
D03*
X0522681D02*
D03*
X0530554D02*
D03*
X0538427D02*
D03*
X0546301D02*
D03*
X0554174D02*
D03*
X0562047D02*
D03*
X0569921D02*
D03*
X0577794D02*
D03*
D27*
X0539622Y0330807D02*
D03*
X0576933Y0335084D02*
D03*
X0583019Y0323814D02*
D03*
X0582085Y0318430D02*
D03*
X0537973Y0337437D02*
D03*
X0537100Y0324100D02*
D03*
X0533937Y0330870D02*
D03*
X0560400Y0327100D02*
D03*
X0563817Y0330685D02*
D03*
X0564032Y0323472D02*
D03*
X0556819Y0323365D02*
D03*
X0556676Y0330756D02*
D03*
X0586032Y0326500D02*
D03*
X0546574Y0307069D02*
D03*
X0561476Y0307205D02*
D03*
X0542969Y0317678D02*
D03*
X0550500Y0317253D02*
D03*
X0551604Y0311619D02*
D03*
X0547642Y0350376D02*
D03*
X0579894Y0361889D02*
D03*
X0573862Y0302273D02*
D03*
X0571400Y0308600D02*
D03*
X0573016Y0305602D02*
D03*
X0546975Y0303600D02*
D03*
X0528310Y0305318D02*
D03*
X0543375Y0344275D02*
D03*
X0568269Y0357468D02*
D03*
X0563268Y0357470D02*
D03*
X0557989Y0357513D02*
D03*
X0568402Y0369182D02*
D03*
X0552174Y0364412D02*
D03*
X0552232Y0359992D02*
D03*
X0557060Y0352488D02*
D03*
X0550545Y0352372D02*
D03*
X0582885Y0357549D02*
D03*
X0583002Y0350627D02*
D03*
X0582769Y0345625D02*
D03*
X0586724Y0369822D02*
D03*
X0579454Y0369473D02*
D03*
X0587190Y0339110D02*
D03*
X0539690Y0369611D02*
D03*
X0522691Y0360521D02*
D03*
X0521691Y0351794D02*
D03*
X0521782Y0343249D02*
D03*
X0521510Y0335795D02*
D03*
X0522055Y0324250D02*
D03*
X0521419Y0306797D02*
D03*
X0527236Y0335704D02*
D03*
X0531509Y0344613D02*
D03*
X0529418Y0354885D02*
D03*
X0542235Y0361248D02*
D03*
X0538508Y0353339D02*
D03*
X0582960Y0314069D02*
D03*
X0586778Y0304343D02*
D03*
X0521345Y0315668D02*
D03*
X0528696Y0314876D02*
D03*
X0528948Y0320603D02*
D03*
X0534549Y0326456D02*
D03*
X0564300Y0310400D02*
D03*
X0582969Y0307866D02*
D03*
X0587125Y0311599D02*
D03*
X0569100Y0350900D02*
D03*
M02*
